<svg width="16" height="17" viewBox="0 0 16 17" fill="none" xmlns="http://www.w3.org/2000/svg">
<path d="M11.4938 15.6666H4.50711C2.64044 15.6666 1.45377 14.5533 1.34711 12.6933L1.00044 7.19325C0.947108 6.35992 1.23377 5.55992 1.80711 4.95325C2.37377 4.34659 3.17377 3.99992 4.00044 3.99992C4.21377 3.99992 4.42044 3.87325 4.52044 3.67325L5.00044 2.71992C5.39377 1.93992 6.38044 1.33325 7.24044 1.33325H8.76711C9.62711 1.33325 10.6071 1.93992 11.0004 2.71325L11.4804 3.68659C11.5804 3.87325 11.7804 3.99992 12.0004 3.99992C12.8271 3.99992 13.6271 4.34659 14.1938 4.95325C14.7671 5.56659 15.0538 6.35992 15.0004 7.19325L14.6538 12.6999C14.5338 14.5866 13.3804 15.6666 11.4938 15.6666ZM7.24044 2.33325C6.74711 2.33325 6.12044 2.71992 5.89377 3.16659L5.41377 4.12659C5.13377 4.66659 4.59377 4.99992 4.00044 4.99992C3.44044 4.99992 2.92044 5.22659 2.53377 5.63325C2.15377 6.03992 1.96044 6.57325 2.00044 7.12659L2.34711 12.6333C2.42711 13.9799 3.15377 14.6666 4.50711 14.6666H11.4938C12.8404 14.6666 13.5671 13.9799 13.6538 12.6333L14.0004 7.12659C14.0338 6.57325 13.8471 6.03992 13.4671 5.63325C13.0804 5.22659 12.5604 4.99992 12.0004 4.99992C11.4071 4.99992 10.8671 4.66659 10.5871 4.13992L10.1004 3.16659C9.88044 2.72659 9.25378 2.33992 8.76044 2.33992H7.24044V2.33325Z" fill="#505050"/>
<path d="M9 6.33325H7C6.72667 6.33325 6.5 6.10659 6.5 5.83325C6.5 5.55992 6.72667 5.33325 7 5.33325H9C9.27333 5.33325 9.5 5.55992 9.5 5.83325C9.5 6.10659 9.27333 6.33325 9 6.33325Z" fill="#505050"/>
<path d="M7.99967 13.0001C6.52634 13.0001 5.33301 11.8067 5.33301 10.3334C5.33301 8.86008 6.52634 7.66675 7.99967 7.66675C9.47301 7.66675 10.6663 8.86008 10.6663 10.3334C10.6663 11.8067 9.47301 13.0001 7.99967 13.0001ZM7.99967 8.66675C7.07967 8.66675 6.33301 9.41341 6.33301 10.3334C6.33301 11.2534 7.07967 12.0001 7.99967 12.0001C8.91967 12.0001 9.66634 11.2534 9.66634 10.3334C9.66634 9.41341 8.91967 8.66675 7.99967 8.66675Z" fill="#505050"/>
</svg>
